# xmcd CD database file
#
# Track frame offsets:
#	150
#	21643
#	36793
#	58729
#	74949
#	92363
#	112962
#	132413
#	144558
#	160750
#	177919
#	197781
#	217582
#	235306
#	256040
#	280513
#	298012
#	314556
#	333507
#	351466
#	372633
#
# Disc length: 5212 seconds
#
# Revision: 0
# Processed by: cddbd v1.5.1PL2 Copyright (c) Steve Scherf et al.
# Submitted via: Feurio! 1.68 - http://www.feurio.com
#
DISCID=52145a15
DTITLE=Eva Cassidy - No Boundaries - Eva By Heart
DYEAR=1900
DGENRE=
TTITLE0=Emotional Step
TTITLE1=The Waiting Is Over
TTITLE2=You Are
TTITLE3=Natural Woman
TTITLE4=Little Children
TTITLE5=I've Got This Feeling
TTITLE6=When It's Too Late
TTITLE7=On The Inside
TTITLE8=Natural Woman (Traditional)
TTITLE9=Little Children (Reflection)
TTITLE10=Waly Waly
TTITLE11=How Can I Keep Fro Singing ?
TTITLE12=Wayfaring Stranger
TTITLE13=Need Your Love So Bad
TTITLE14=Nightbird
TTITLE15=Say Goodbye
TTITLE16=Songbird
TTITLE17=Time Is A Healer
TTITLE18=Wade In The Water
TTITLE19=I Know You By Heart
TTITLE20=Blues In The Night
EXTD=
EXTT0=
EXTT1=
EXTT2=
EXTT3=
EXTT4=
EXTT5=
EXTT6=
EXTT7=
EXTT8=
EXTT9=
EXTT10=
EXTT11=
EXTT12=
EXTT13=
EXTT14=
EXTT15=
EXTT16=
EXTT17=
EXTT18=
EXTT19=
EXTT20=
PLAYORDER=
